<?xml version="1.0" encoding="UTF-8" standalone="no"?>
<!-- Created with Inkscape (http://www.inkscape.org/) -->

<svg
   width="209.92827mm"
   height="130.7038mm"
   viewBox="0 0 209.92827 130.7038"
   version="1.1"
   id="svg1"
   sodipodi:docname="cloud-bottom2.svg"
   inkscape:version="1.3.2 (1:1.3.2+202311252150+091e20ef0f)"
   xmlns:inkscape="http://www.inkscape.org/namespaces/inkscape"
   xmlns:sodipodi="http://sodipodi.sourceforge.net/DTD/sodipodi-0.dtd"
   xmlns="http://www.w3.org/2000/svg"
   xmlns:svg="http://www.w3.org/2000/svg">
  <sodipodi:namedview
     id="namedview1"
     pagecolor="#ffffff"
     bordercolor="#000000"
     borderopacity="0.25"
     inkscape:showpageshadow="2"
     inkscape:pageopacity="0.0"
     inkscape:pagecheckerboard="0"
     inkscape:deskcolor="#d1d1d1"
     inkscape:document-units="mm"
     inkscape:zoom="0.60622938"
     inkscape:cx="285.37053"
     inkscape:cy="89.075195"
     inkscape:window-width="1850"
     inkscape:window-height="1016"
     inkscape:window-x="0"
     inkscape:window-y="0"
     inkscape:window-maximized="1"
     inkscape:current-layer="svg1" />
  <defs
     id="defs1">
    <filter
       style="color-interpolation-filters:sRGB"
       id="filter8"
       x="-0.015480124"
       y="-0.045638043"
       width="1.0309602"
       height="1.0912761">
      <feGaussianBlur
         stdDeviation="2.4603213"
         id="feGaussianBlur8" />
    </filter>
  </defs>
  <path
     id="path97-3"
     style="fill:#fff5f5;fill-opacity:1;stroke:none;stroke-width:0.264583;stroke-linecap:round;stroke-linejoin:round;stroke-miterlimit:3.7;stroke-dasharray:none;stroke-opacity:1"
     d="M 20.848857,0.0120395 C 19.809886,-0.0089671 18.761737,-0.00262948 17.723466,0.03219331 13.570382,0.17148445 9.5726335,0.76829282 6.6445557,2.7286695 3.7164778,4.6890373 1.8581941,8.0131482 0,11.33693 l 0.04909261,89.39919 V 130.7038 H 209.92827 v -29.90825 -0.0594 -89.38162 c -0.0344,0.03545 -0.069,0.07107 -0.69091,0.342098 -0.62193,0.271023 -1.83156,0.77748 -3.18844,1.472778 -1.35689,0.695307 -2.86081,1.579481 -3.8747,3.012219 -1.0139,1.43273 -1.53756,3.413952 -1.75338,5.558317 -0.21582,2.144375 -0.12384,4.451569 -0.032,6.758761 -3.4694,0.175734 -6.9478,0.351913 -9.90069,2.388485 -2.95289,2.036581 -5.39772,5.934584 -6.46575,9.961149 -1.06802,4.026557 -0.75886,8.181521 -1.16685,10.757483 -0.408,2.57596 -1.53297,3.572459 -2.33423,5.773807 -0.80127,2.20135 -1.27902,5.607638 -2.86494,8.048605 -1.58593,2.440958 -4.27986,3.916329 -5.62705,3.834908 -1.34718,-0.08141 -1.34745,-1.719892 -2.1177,-2.904216 -0.77026,-1.184334 -2.31073,-1.914129 -3.77703,-1.962154 -1.46629,-0.04799 -2.85832,0.585546 -3.12022,-0.340031 -0.26191,-0.925577 0.60653,-3.410586 1.19683,-6.241996 0.5903,-2.831411 0.90229,-6.008859 -0.73639,-8.679057 -1.6387,-2.67019 -5.22803,-4.832797 -9.20668,-5.088061 -3.97864,-0.255265 -8.34621,1.396873 -10.4898,3.051493 -2.14357,1.654611 -2.06309,3.3114 -3.13779,4.441073 -1.07471,1.129673 -3.30429,1.731929 -5.42189,1.131713 -2.11759,-0.600205 -4.12329,-2.402863 -6.44043,-4.233333 -2.31715,-1.830479 -4.94598,-3.688237 -7.70548,-4.907194 -2.75949,-1.218957 -5.64938,-1.798986 -8.16074,-1.875854 -2.51136,-0.0769 -4.64388,0.348989 -6.57169,1.514636 -1.92781,1.165647 -3.65086,3.071233 -5.50871,3.767212 -1.85786,0.695988 -3.850279,0.182326 -5.931936,0.613399 -2.081648,0.431073 -4.251944,1.807033 -5.767607,4.076237 -1.515672,2.269205 -2.376869,5.431844 -2.890779,6.702433 -0.513902,1.270589 -0.680509,0.648882 -1.360124,-0.484208 C 84.201558,56.712141 83.008866,55.06744 81.237459,53.601563 79.466043,52.135697 77.11605,50.848669 75.098815,50.202804 73.081589,49.55694 71.397162,49.55271 69.704829,49.431275 68.012496,49.30984 66.312369,49.071402 65.54746,47.840675 64.782551,46.609947 64.953362,44.38678 65.242569,42.54229 c 0.289198,-1.844489 0.696708,-3.309986 -0.05013,-5.613094 -0.746794,-2.303118 -2.648316,-5.443645 -4.334619,-7.060551 -1.686294,-1.616906 -3.157085,-1.710231 -5.233789,-1.592668 -2.076703,0.117565 -4.758908,0.446054 -6.621818,1.70739 -1.862918,1.261346 -2.906553,3.455298 -3.500045,4.969722 -0.5935,1.514426 -0.736941,2.349047 -1.247986,2.336809 -0.511045,-0.01225 -1.389606,-0.871073 -1.5875,-2.334225 -0.197884,-1.463152 0.284796,-3.53049 0.870748,-5.772774 0.585944,-2.242285 1.274814,-4.659662 1.132231,-7.648629 -0.14256,-2.988958 -1.116372,-6.549516 -2.50424,-9.616984 C 40.777508,8.8497961 38.975946,6.2755836 36.961568,4.45983 34.947198,2.6440765 32.720156,1.5871463 29.452466,0.89932384 27.001692,0.3834638 23.965769,0.07505931 20.848857,0.0120395 Z" />
</svg>
