<?xml version="1.0" encoding="UTF-8" standalone="no"?>
<!-- Created with Inkscape (http://www.inkscape.org/) -->

<svg
   width="187.306mm"
   height="66.123505mm"
   viewBox="0 0 187.306 66.123505"
   version="1.1"
   id="svg1"
   sodipodi:docname="cloud-banner2.svg"
   inkscape:version="1.3.2 (1:1.3.2+202311252150+091e20ef0f)"
   xmlns:inkscape="http://www.inkscape.org/namespaces/inkscape"
   xmlns:sodipodi="http://sodipodi.sourceforge.net/DTD/sodipodi-0.dtd"
   xmlns="http://www.w3.org/2000/svg"
   xmlns:svg="http://www.w3.org/2000/svg">
  <sodipodi:namedview
     id="namedview1"
     pagecolor="#ffffff"
     bordercolor="#000000"
     borderopacity="0.25"
     inkscape:showpageshadow="2"
     inkscape:pageopacity="0.0"
     inkscape:pagecheckerboard="0"
     inkscape:deskcolor="#d1d1d1"
     inkscape:document-units="mm"
     inkscape:zoom="0.9608838"
     inkscape:cx="362.16658"
     inkscape:cy="270.58423"
     inkscape:window-width="1850"
     inkscape:window-height="1016"
     inkscape:window-x="0"
     inkscape:window-y="0"
     inkscape:window-maximized="1"
     inkscape:current-layer="svg1" />
  <defs
     id="defs1">
    <filter
       style="color-interpolation-filters:sRGB"
       id="filter8"
       x="-0.015480124"
       y="-0.045638043"
       width="1.0309602"
       height="1.0912761">
      <feGaussianBlur
         stdDeviation="2.4603213"
         id="feGaussianBlur8" />
    </filter>
  </defs>
  <g
     id="g1">
    <path
       style="fill:#fff5f5;fill-opacity:1;stroke:#000000;stroke-width:0.26458333;stroke-linecap:round;stroke-linejoin:round;stroke-miterlimit:3.7;stroke-dasharray:none;stroke-opacity:1"
       d="m 19.981953,41.348622 c -0.302005,-0.649983 -0.906015,-1.949943 -1.503513,-3.412243 -0.597503,-1.462294 -1.18847,-3.086859 -0.751382,-4.255197 0.437089,-1.168338 1.902182,-1.880391 3.367305,-2.592459 0,-0.908741 0,-1.817482 0.623452,-3.020072 0.623458,-1.202584 1.870314,-2.698954 3.67467,-3.781516 1.804355,-1.082558 4.166093,-1.751245 6.031454,-1.478376 1.86536,0.272874 3.234251,1.48727 4.456977,2.18204 1.222725,0.69477 2.299212,0.869881 3.162346,0.575332 0.863133,-0.29455 1.512868,-1.058735 1.745915,-1.706232 0.233046,-0.647497 0.04941,-1.178276 -0.291585,-1.65635 -0.340988,-0.478068 -0.839302,-0.903407 -1.156121,-1.998888 -0.316818,-1.095482 -0.452122,-2.861038 -0.175223,-4.154375 0.276893,-1.293336 0.965956,-2.114385 1.754923,-2.532031 0.788967,-0.41764 1.67779,-0.431859 2.421257,0.05759 0.743467,0.489453 1.341543,1.482534 1.93963,2.475634 0.184589,-1.887863 0.369183,-3.775722 1.156375,-5.445358 0.787197,-1.6696367 2.176943,-3.1209879 3.879044,-4.2567465 1.702107,-1.1357537 3.716462,-1.955856 5.819979,-2.3649659 2.103517,-0.4091098 4.296062,-0.4072173 5.912023,0.054628 1.615957,0.461845 2.655245,1.3836033 3.565889,2.3707855 0.910644,0.9871871 1.692599,2.0397441 1.970311,3.0951742 0.277718,1.0554297 0.05118,2.1136737 -0.198574,3.3013297 -0.249757,1.187655 -0.522733,2.504653 -0.03207,3.1807 0.49064,0.676046 1.744846,0.711116 2.498027,0.475931 0.753176,-0.235191 1.005297,-0.740617 1.699248,-1.081126 0.693946,-0.340514 1.829673,-0.516101 2.794109,-0.463253 0.964435,0.05284 1.757526,0.334106 2.196733,0.651282 0.439206,0.317177 0.524508,0.670237 0.609815,1.023307 0.236724,-1.457779 0.473443,-2.915553 1.692864,-4.262091 1.219416,-1.346537 3.421445,-2.5817846 5.201857,-3.3207494 1.780412,-0.7389599 3.139114,-0.9816028 4.376767,-0.2870579 1.237653,0.6945448 2.354187,2.3262183 3.470742,3.9579263 1.052813,-0.86514 2.105627,-1.73028 3.082385,-2.7976779 0.976759,-1.0674029 1.877426,-2.3370097 3.26686,-3.7412492 1.389433,-1.4042396 3.267538,-2.9430285 4.907318,-4.011961 1.63978,-1.0689326 3.04113,-1.66795492 4.359,-1.89330042 1.31786,-0.22534551 2.55216,-0.0770142 3.54503,0.35117755 0.99287,0.42819667 1.74426,1.13621947 2.49566,1.84425707 0.96632,0.1786653 1.93264,0.3573355 3.02599,0.1127855 1.09334,-0.2445501 2.31366,-0.9122909 3.7685,-1.1962894 1.45483,-0.2839936 3.14409,-0.184235 4.86799,0.4204991 1.7239,0.6047342 3.48234,1.7143949 4.97011,3.0774013 1.48776,1.3630114 2.70477,2.9792851 3.25262,4.6029524 0.54785,1.623667 0.42653,3.254625 0.3052,4.885622 1.03078,-0.888125 2.06156,-1.776249 3.28594,-2.417348 1.22439,-0.641099 2.64233,-1.035157 4.15273,-1.1829 1.5104,-0.147743 3.11316,-0.04917 4.23458,0.627479 1.12142,0.676654 1.76144,1.931332 2.40147,3.186034 1.7836,-1.229585 3.56719,-2.45917 5.1264,-2.770526 1.55921,-0.311362 2.89398,0.295481 4.45841,0.96028 1.56443,0.664799 3.35842,1.387511 4.76526,2.609173 1.40684,1.221666 2.42646,2.9422 2.88438,4.53115 0.45793,1.58895 0.35414,3.046224 0.15983,4.421674 -0.19431,1.375445 -0.47913,2.668987 -0.76313,3.572634 -0.284,0.903652 -0.56716,1.417375 -0.85033,1.931102 0.96277,-0.733866 1.92554,-1.467732 2.91841,-1.433363 0.99288,0.03437 2.01581,0.836934 2.68985,1.467962 0.67404,0.631033 0.99914,1.090486 1.32425,1.549953 1.24356,-0.444298 2.48713,-0.8886 3.84824,-0.949969 1.36111,-0.06137 2.83972,0.26018 3.95308,1.146187 1.11336,0.886006 1.86143,2.336411 1.60787,4.309368 -0.25356,1.972953 -1.50871,4.46833 -2.32386,5.978123 -0.81514,1.509799 -1.19024,2.033939 -1.56535,2.558095 0.7995,0.514914 1.59901,1.029832 2.38691,1.656477 0.7879,0.62665 1.56416,1.365002 2.38571,1.646745 0.82155,0.281743 1.68833,0.106873 2.49448,0.228082 0.80614,0.121208 1.5516,0.538486 2.27683,1.024498 0.72522,0.486011 1.43016,1.040721 1.55871,1.424836 0.12854,0.384115 -0.3193,0.59761 -1.02782,0.556853 -0.70852,-0.04074 -1.67767,-0.335768 -2.72848,-0.518939 -1.05081,-0.183171 -2.18322,-0.254498 -2.88107,-0.07962 -0.69785,0.174881 -0.9611,0.595948 -1.63396,1.283737 -0.67286,0.687789 -1.75527,1.642244 -2.67623,2.027188 -0.92095,0.384944 -1.6804,0.200351 -2.71486,0.110305 -1.03445,-0.09005 -2.34387,-0.08555 -4.12998,0.567634 -1.78611,0.653189 -4.0488,1.955017 -5.79023,2.778576 -1.74143,0.823559 -2.96151,1.168809 -4.14585,1.147006 -1.18433,-0.02182 -2.33286,-0.410639 -3.4814,-0.799491 -0.57605,0.497847 -1.15211,0.995704 -2.38835,1.621162 -1.23623,0.625459 -3.13258,1.3785 -5.28349,1.446973 -2.15092,0.06848 -4.55625,-0.547601 -6.54068,-1.283129 -1.98444,-0.735532 -3.54788,-1.590475 -4.94583,-2.017955 -1.39796,-0.427476 -2.63036,-0.427476 -3.32335,-0.192168 -0.693,0.235308 -0.84654,0.705895 -0.71573,0.960398 0.1308,0.254502 0.54595,0.292897 1.05992,0.780443 0.51397,0.48755 1.12673,1.424223 1.06938,2.261177 -0.0573,0.836953 -0.7848,1.574114 -2.00457,2.0228 -1.21977,0.44869 -2.93177,0.608872 -4.85377,0.377358 -1.922,-0.231508 -4.05389,-0.854697 -5.50102,-1.487274 -1.44713,-0.632573 -2.2094,-1.274485 -3.63865,-1.719381 -1.42925,-0.444896 -3.52535,-0.692741 -5.38444,-0.88788 -1.85908,-0.195134 -3.48104,-0.337547 -4.97947,-0.613378 -1.49843,-0.275825 -2.87325,-0.685048 -4.17251,-0.866914 -1.29927,-0.181867 -2.5229,-0.136369 -3.93734,0.270618 -1.414429,0.406987 -3.01956,1.175423 -4.855072,1.436314 -1.835512,0.260891 -3.90129,0.01422 -5.942129,-0.01907 -2.040838,-0.03329 -4.056615,0.146802 -6.072434,0.326894 0.91277,-0.447622 1.825541,-0.895244 3.297557,-1.209219 1.472016,-0.313974 3.503196,-0.494292 5.246525,-0.850686 1.74333,-0.356394 3.198712,-0.88884 4.716928,-1.408858 1.518217,-0.520018 3.099181,-1.027572 4.842395,-1.864168 1.74322,-0.8366 3.64857,-2.002178 4.1104,-2.850736 0.46183,-0.848559 -0.51988,-1.380049 -1.46453,-1.414404 -0.94465,-0.03437 -1.85219,0.428423 -2.56118,0.823912 -0.70898,0.39549 -1.21939,0.723673 -1.937149,0.697957 -0.717761,-0.02574 -1.642835,-0.405319 -2.47244,-0.445954 -0.829604,-0.04064 -1.563692,0.257689 -1.981453,0.817641 -0.417762,0.559946 -0.519176,1.381451 -1.3527,2.078599 -0.833524,0.697148 -2.399089,1.269862 -3.81233,1.473527 -1.41324,0.203665 -2.674081,0.03829 -4.189695,0.0049 -1.515613,-0.03339 -3.285908,0.06516 -4.482679,0.408163 -1.196771,0.343005 -1.819959,0.930407 -2.915917,1.432534 -1.095959,0.502122 -2.664596,0.91893 -4.898925,1.386457 -2.234329,0.467528 -5.134187,0.985751 -6.985916,0.647713 -1.851734,-0.338033 -2.65525,-1.532283 -3.491252,-2.580128 -0.836002,-1.047846 -1.704441,-1.949228 -2.309054,-2.266399 -0.604613,-0.317171 -0.945351,-0.05013 -1.560031,0.605788 -0.614685,0.65592 -1.503268,1.700657 -2.856325,2.340927 -1.353062,0.64027 -3.170505,0.876049 -5.120707,0.823442 -1.950207,-0.05261 -4.033045,-0.393588 -5.557889,-0.588844 -1.524848,-0.195262 -2.491623,-0.244791 -3.458422,-0.294319 -1.558011,0.477475 -3.116027,0.95495 -4.512912,0.398083 -1.39689,-0.556868 -2.632625,-2.148034 -3.48118,-3.322417 -0.848555,-1.174379 -1.309901,-1.931911 -2.538143,-1.659753 -1.228237,0.272154 -3.223297,1.573997 -4.818403,2.131678 -1.595106,0.557686 -2.790191,0.371201 -3.87773,0.232283 -1.087535,-0.138923 -2.067466,-0.230273 -2.865607,-0.04604 -0.798147,0.184235 -1.414475,0.64405 -1.891066,0.984035 -0.476591,0.339984 -0.813416,0.560118 -1.150256,0.780261 0.380678,-0.679247 0.761356,-1.3585 0.786413,-1.892555 0.02506,-0.534049 -0.305501,-0.9229 -0.808871,-1.17758 -0.503369,-0.254674 -1.17952,-0.375162 -1.825838,-0.307919 -0.646313,0.06724 -1.262748,0.322206 -2.031042,0.337248 -0.768289,0.01505 -1.688387,-0.209828 -2.681145,-0.367764 -0.9927591,-0.157936 -2.0581052,-0.248923 -3.0467743,-0.07327 -0.9886692,0.175655 -1.9005929,0.617933 -2.9697686,1.105184 -1.0691757,0.487257 -2.2955299,1.019453 -3.0706885,1.29243 -0.77515868,0.272977 -1.09907762,0.286724 -1.42300146,0.300467 0.2312712,-0.318716 0.4625473,-0.637436 0.80358945,-0.968115 0.34104701,-0.330683 0.79185521,-0.67332 1.55902111,-1.145466 0.7671707,-0.472151 1.850655,-1.073782 2.55431,-1.657237 0.7036551,-0.583461 1.0274563,-1.148717 1.2438011,-1.854686 0.2163448,-0.705973 0.3252282,-1.552615 0.7033657,-2.296732 0.3781326,-0.744123 1.0254949,-1.385678 1.7764299,-1.833005 0.7509351,-0.447323 1.6053936,-0.700394 2.4169326,-0.678175 0.811538,0.02221 1.580101,0.319716 2.288915,0.338911 0.708813,0.01917 1.357833,-0.239922 1.798819,-0.423745 0.440982,-0.183823 0.67391,-0.292348 0.906844,-0.400878 -0.313852,-0.481858 -0.627709,-0.963712 -0.531026,-1.418678 0.09668,-0.454967 0.603888,-0.883031 1.266676,-1.194044 0.662784,-0.311013 1.481109,-0.504956 2.067706,-0.627645 0.586598,-0.122685 0.941438,-0.174106 1.118859,-0.199817 0.177425,-0.02569 0.177425,-0.02569 -0.12458,-0.675664 z"
       id="path5-3" />
    <path
       style="fill:none;fill-opacity:1;stroke:#d2dde6;stroke-width:4.47756;stroke-linecap:round;stroke-linejoin:round;stroke-miterlimit:3.7;stroke-dasharray:none;stroke-opacity:1"
       d="m 138.35065,54.151255 c 1.7919,2.720829 3.58379,5.441659 5.37568,8.162487"
       id="path48-1-6" />
    <path
       style="fill:#000000;fill-opacity:1;stroke:#d2dde6;stroke-width:4.47755;stroke-linecap:round;stroke-linejoin:round;stroke-miterlimit:3.7;stroke-dasharray:none;stroke-opacity:1"
       d="m 169.60745,37.432381 c 3.14653,5.397622 6.29306,10.795254 9.4396,16.192877"
       id="path59" />
    <path
       style="fill:#000000;fill-opacity:1;stroke:#d2dde6;stroke-width:4.47755;stroke-linecap:round;stroke-linejoin:round;stroke-miterlimit:3.7;stroke-dasharray:none;stroke-opacity:1"
       d="m 149.43029,25.427239 c 0.99381,2.046147 1.98763,4.092302 2.98144,6.138448"
       id="path61" />
    <path
       style="fill:#000000;fill-opacity:1;stroke:#d2dde6;stroke-width:4.47755;stroke-linecap:round;stroke-linejoin:round;stroke-miterlimit:3.7;stroke-dasharray:none;stroke-opacity:1"
       d="m 163.03837,18.457336 c 0,0 0,0 0,0 1.73478,2.143068 3.46956,4.286136 5.20434,6.429205"
       id="path62" />
    <path
       style="fill:#000000;fill-opacity:1;stroke:#d2dde6;stroke-width:4.47755;stroke-linecap:round;stroke-linejoin:round;stroke-miterlimit:3.7;stroke-dasharray:none;stroke-opacity:1"
       d="m 175.47844,32.781382 c 1.7962,2.556903 3.59241,5.113815 5.3886,7.670719"
       id="path69" />
    <path
       style="fill:#000000;fill-opacity:1;stroke:#d2dde6;stroke-width:4.47755;stroke-linecap:round;stroke-linejoin:round;stroke-miterlimit:3.7;stroke-dasharray:none;stroke-opacity:1"
       d="m 156.9648,23.012701 c 1.48123,2.304196 2.96247,4.608391 4.44371,6.912596"
       id="path71" />
    <path
       style="fill:#000000;fill-opacity:1;stroke:#d2dde6;stroke-width:4.47755;stroke-linecap:round;stroke-linejoin:round;stroke-miterlimit:3.7;stroke-dasharray:none;stroke-opacity:1"
       d="m 161.29552,41.12251 c 3.42861,5.418383 6.85723,10.836793 10.28582,16.255158"
       id="path72" />
    <path
       style="fill:#000000;fill-opacity:1;stroke:#d2dde6;stroke-width:4.47755;stroke-linecap:round;stroke-linejoin:round;stroke-miterlimit:3.7;stroke-dasharray:none;stroke-opacity:1"
       d="m 155.07997,48.872933 c 2.70781,4.102894 5.41564,8.205797 8.12346,12.308709"
       id="path73" />
    <path
       style="fill:none;fill-opacity:1;stroke:#d2dde6;stroke-width:4.47755;stroke-linecap:round;stroke-linejoin:round;stroke-miterlimit:3.7;stroke-dasharray:none;stroke-opacity:1"
       d="m 124.45303,10.037538 c 1.36088,2.658109 2.72178,5.316219 4.08267,7.974328"
       id="path80" />
    <path
       style="fill:none;fill-opacity:1;stroke:#d2dde6;stroke-width:4.47755;stroke-linecap:round;stroke-linejoin:round;stroke-miterlimit:3.7;stroke-dasharray:none;stroke-opacity:1"
       d="m 117.82582,16.247912 c 0.67978,1.331233 1.35955,2.662466 2.03933,3.993699"
       id="path81" />
    <path
       style="fill:none;fill-opacity:1;stroke:#d2dde6;stroke-width:4.47755;stroke-linecap:round;stroke-linejoin:round;stroke-miterlimit:3.7;stroke-dasharray:none;stroke-opacity:1"
       d="m 64.282903,3.9184205 c 1.322236,2.1004096 2.644481,4.2008282 3.966717,6.3012375"
       id="path82" />
    <path
       style="fill:none;fill-opacity:1;stroke:#d2dde6;stroke-width:4.47755;stroke-linecap:round;stroke-linejoin:round;stroke-miterlimit:3.7;stroke-dasharray:none;stroke-opacity:1"
       d="m 59.057225,8.9393629 c 1.476263,2.3316891 2.952526,4.6633771 4.428779,6.9950571"
       id="path83" />
    <path
       style="fill:none;fill-opacity:1;stroke:#d2dde6;stroke-width:4.47755;stroke-linecap:round;stroke-linejoin:round;stroke-miterlimit:3.7;stroke-dasharray:none;stroke-opacity:1"
       d="m 51.843922,17.318506 c 0.440034,0.644771 0.880078,1.289532 1.320112,1.934303"
       id="path84" />
    <path
       style="fill:none;fill-opacity:1;stroke:#d2dde6;stroke-width:4.47755;stroke-linecap:round;stroke-linejoin:round;stroke-miterlimit:3.7;stroke-dasharray:none;stroke-opacity:1"
       d="m 147.63862,53.950325 c 2.16048,3.31152 4.32096,6.623031 6.48145,9.93456"
       id="path85" />
    <path
       style="fill:none;fill-opacity:1;stroke:#d2dde6;stroke-width:4.47755;stroke-linecap:round;stroke-linejoin:round;stroke-miterlimit:3.7;stroke-dasharray:none;stroke-opacity:1"
       d="m 45.746233,53.272397 c 1.375639,2.669841 2.751269,5.339672 4.126908,8.009504"
       id="path87" />
    <path
       style="fill:none;fill-opacity:1;stroke:#d2dde6;stroke-width:4.47755;stroke-linecap:round;stroke-linejoin:round;stroke-miterlimit:3.7;stroke-dasharray:none;stroke-opacity:1"
       d="m 92.989799,44.282398 c 0.144933,0.209607 0.289876,0.419222 0.897613,1.625398 0.607729,1.206176 1.678224,3.408822 2.748738,5.611504"
       id="path88" />
    <path
       style="fill:none;fill-opacity:1;stroke:#d2dde6;stroke-width:4.47755;stroke-linecap:round;stroke-linejoin:round;stroke-miterlimit:3.7;stroke-dasharray:none;stroke-opacity:1"
       d="m 85.661401,45.887921 c 1.13687,1.997433 2.27374,3.994874 3.410601,5.992297"
       id="path89" />
    <path
       style="fill:none;fill-opacity:1;stroke:#d2dde6;stroke-width:4.47755;stroke-linecap:round;stroke-linejoin:round;stroke-miterlimit:3.7;stroke-dasharray:none;stroke-opacity:1"
       d="m 76.511833,48.646559 c 0.671066,1.125305 1.342131,2.250628 2.013188,3.375924"
       id="path90" />
    <path
       style="fill:none;fill-opacity:1;stroke:#d2dde6;stroke-width:4.47755;stroke-linecap:round;stroke-linejoin:round;stroke-miterlimit:3.7;stroke-dasharray:none;stroke-opacity:1"
       d="m 53.53538,49.230658 c 1.537159,3.833674 3.074318,7.667357 4.611478,11.50104"
       id="path91" />
    <path
       style="fill:none;fill-opacity:1;stroke:#d2dde6;stroke-width:4.47755;stroke-linecap:round;stroke-linejoin:round;stroke-miterlimit:3.7;stroke-dasharray:none;stroke-opacity:1"
       d="m 37.430093,50.854075 c 1.513034,3.369887 3.026059,6.739756 4.539093,10.109651"
       id="path92" />
    <path
       style="fill:none;fill-opacity:1;stroke:#d2dde6;stroke-width:4.47755;stroke-linecap:round;stroke-linejoin:round;stroke-miterlimit:3.7;stroke-dasharray:none;stroke-opacity:1"
       d="m 26.280712,33.417724 c 0.741272,1.479526 1.482536,2.959043 2.223808,4.43856"
       id="path94" />
    <path
       style="fill:none;fill-opacity:1;stroke:#d2dde6;stroke-width:4.47755;stroke-linecap:round;stroke-linejoin:round;stroke-miterlimit:3.7;stroke-dasharray:none;stroke-opacity:1"
       d="m 33.548286,30.886289 c 0.171581,1.477511 0.343152,2.955022 0.514733,4.432533"
       id="path95" />
  </g>
</svg>
