<?xml version="1.0" encoding="UTF-8" standalone="no"?>
<!-- Created with Inkscape (http://www.inkscape.org/) -->

<svg
   width="210mm"
   height="297mm"
   viewBox="0 0 210 297"
   version="1.1"
   id="svg1"
   xmlns="http://www.w3.org/2000/svg"
   xmlns:svg="http://www.w3.org/2000/svg">
  <defs
     id="defs1" />
  <g
     id="layer1">
    <g
       id="g2">
      <g
         id="g63"
         transform="matrix(0.90391362,0,0,0.90378682,-307.49595,34.379496)"
         style="stroke-width:1.10638">
        <g
           id="g59"
           transform="translate(356.31319,58.126972)"
           style="stroke:#000000;stroke-width:1.10638;stroke-opacity:1">
          <g
             id="g60"
             style="stroke:#000000;stroke-width:1.10638;stroke-opacity:1">
            <rect
               style="fill:#f2ee60;fill-opacity:1;stroke:#000000;stroke-width:4.95436;stroke-linecap:round;stroke-linejoin:round;stroke-miterlimit:3.7;stroke-dasharray:none;stroke-opacity:1"
               id="rect52"
               width="107.94412"
               height="80.414116"
               x="46.059185"
               y="135.38428" />
            <rect
               style="fill:#f2ee60;fill-opacity:1;stroke:#000000;stroke-width:4.95436;stroke-linecap:round;stroke-linejoin:round;stroke-miterlimit:3.7;stroke-dasharray:none;stroke-opacity:1"
               id="rect53"
               width="117.88162"
               height="27.185579"
               x="41.090435"
               y="108.19869" />
            <rect
               style="fill:#f49314;fill-opacity:1;stroke:#000000;stroke-width:4.9708;stroke-linecap:round;stroke-linejoin:round;stroke-miterlimit:3.7;stroke-dasharray:none;stroke-opacity:1"
               id="rect54"
               width="25.578257"
               height="80.399269"
               x="87.242119"
               y="135.39171" />
            <rect
               style="fill:#f49314;fill-opacity:1;stroke:#000000;stroke-width:4.95436;stroke-linecap:round;stroke-linejoin:round;stroke-miterlimit:3.7;stroke-dasharray:none;stroke-opacity:1"
               id="rect55"
               width="32.090065"
               height="27.209988"
               x="83.986214"
               y="108.18649" />
            <g
               id="g58"
               transform="translate(-1.6001473,1.9399917)"
               style="fill:#f49314;fill-opacity:1;stroke:#000000;stroke-width:1.10638;stroke-opacity:1">
              <path
                 style="fill:#f49314;fill-opacity:1;stroke:#000000;stroke-width:4.95435;stroke-linecap:round;stroke-linejoin:round;stroke-miterlimit:3.7;stroke-dasharray:none;stroke-opacity:1"
                 d="m 115.93717,86.391481 c -1.15061,-1.283195 -3.45185,-3.849591 -6.78825,-6.073535 -3.33641,-2.223944 -7.70781,-4.105366 -11.185518,-4.706951 -3.477708,-0.601586 -6.061525,0.07668 -8.613249,1.356395 -2.551723,1.279715 -5.071203,3.160792 -6.330969,5.509937 -1.259765,2.349144 -1.259765,5.166208 -0.720375,7.886338 0.53939,2.720131 1.618126,5.343169 2.500816,7.001123 0.88269,1.657954 1.569284,2.350746 3.814482,2.706382 2.245198,0.35564 6.048832,0.3741 10.397047,0.0651 4.348216,-0.309004 9.240726,-0.945461 14.133346,-1.581932 -0.14292,-2.328372 -0.28584,-4.656744 0.37139,-6.470034 0.65723,-1.813291 2.11455,-3.111445 2.84322,-3.760537 0.72868,-0.649091 0.72868,-0.649081 -0.42194,-1.932276 z"
                 id="path58-0"
                 transform="matrix(-1,0,0,1,222.93172,5.8557552)" />
              <path
                 style="fill:#f49314;fill-opacity:1;stroke:#000000;stroke-width:4.95435;stroke-linecap:round;stroke-linejoin:round;stroke-miterlimit:3.7;stroke-dasharray:none;stroke-opacity:1"
                 d="m 115.93717,86.391481 c -1.15061,-1.283195 -3.45185,-3.849591 -6.78825,-6.073535 -3.33641,-2.223944 -7.70781,-4.105366 -11.185518,-4.706951 -3.477708,-0.601586 -6.061525,0.07668 -8.613249,1.356395 -2.551723,1.279715 -5.071203,3.160792 -6.330969,5.509937 -1.259765,2.349144 -1.259765,5.166208 -0.720375,7.886338 0.53939,2.720131 1.618126,5.343169 2.500816,7.001123 0.88269,1.657954 1.569284,2.350746 3.814482,2.706382 2.245198,0.35564 6.048832,0.3741 10.397047,0.0651 4.348216,-0.309004 9.240726,-0.945461 14.133346,-1.581932 -0.14292,-2.328372 -0.28584,-4.656744 0.37139,-6.470034 0.65723,-1.813291 2.11455,-3.111445 2.84322,-3.760537 0.72868,-0.649091 0.72868,-0.649081 -0.42194,-1.932276 z"
                 id="path58"
                 transform="translate(-19.668933,5.8557552)" />
              <path
                 style="fill:#f49314;fill-opacity:1;stroke:#000000;stroke-width:4.95435;stroke-linecap:round;stroke-linejoin:round;stroke-miterlimit:3.7;stroke-dasharray:none;stroke-opacity:1"
                 d="m 95.544648,104.81832 c -0.196677,-1.1995 -0.59003,-3.59848 -0.06183,-5.458748 0.528199,-1.860267 1.97789,-3.181766 4.372046,-3.894543 2.394157,-0.712777 5.732627,-0.816801 7.824517,-0.23683 2.09189,0.579972 2.93711,1.843892 3.3576,3.599076 0.42048,1.755185 0.41622,4.001525 0.19975,5.678385 -0.21647,1.67686 -0.64512,2.78415 -3.09285,3.26814 -2.44772,0.48398 -6.91432,0.34465 -9.317929,-0.0519 -2.403609,-0.39656 -2.744115,-1.05032 -2.914371,-1.37721 -0.170256,-0.32688 -0.170255,-0.32688 -0.366932,-1.52637 z"
                 id="path56"
                 transform="translate(-2.1600097,-1.8942376)" />
            </g>
          </g>
        </g>
        <path
           id="path8-2-4"
           style="fill:#d8422f;fill-opacity:1;stroke:#000000;stroke-width:4.95388;stroke-linecap:round;stroke-linejoin:round;stroke-miterlimit:3.7;stroke-dasharray:none;stroke-opacity:1"
           d="m 410.13555,24.205757 a 46.208891,45.593622 0 0 1 46.2089,-45.593622 46.208891,45.593622 0 0 1 46.20888,45.593622 m 0,0 v 0 c -0.72814,36.789734 -46.94134,58.144923 -46.94134,58.144923 0,0 -45.37446,-22.745565 -45.47642,-58.144923" />
        <path
           style="fill:#da422f;fill-opacity:1;stroke:#000000;stroke-width:4.95388;stroke-linecap:round;stroke-linejoin:round;stroke-miterlimit:3.7;stroke-dasharray:none;stroke-opacity:1"
           d="m 445.04507,98.31379 11.29947,-15.96311 11.29948,15.96311 h -22.59895"
           id="path12-8-7" />
        <path
           style="fill:#da422f;fill-opacity:1;stroke:#000000;stroke-width:3.80547;stroke-linecap:round;stroke-linejoin:round;stroke-miterlimit:3.7;stroke-dasharray:none;stroke-opacity:1"
           d="m 89.032428,46.192275 c 3.957578,3.046121 7.915153,6.09224 10.57643,9.780922 2.661272,3.688681 4.026192,8.019749 4.515162,11.406407 0.48896,3.386658 0.10195,5.82872 -0.28506,8.270829"
           id="path13-9-6"
           transform="matrix(1.3017772,0,0,1.3017772,353.98221,-70.628048)" />
        <path
           style="fill:#da422f;fill-opacity:1;stroke:#000000;stroke-width:3.80547;stroke-linecap:round;stroke-linejoin:round;stroke-miterlimit:3.7;stroke-dasharray:none;stroke-opacity:1"
           d="m 101.26913,85.227408 c -1.00851,1.544746 -2.017006,3.089486 -3.025508,4.634227"
           id="path14-7-5"
           transform="matrix(1.3017772,0,0,1.3017772,353.98221,-70.628048)" />
        <path
           style="fill:#da422f;fill-opacity:1;stroke:#000000;stroke-width:3.80547;stroke-linecap:round;stroke-linejoin:round;stroke-miterlimit:3.7;stroke-dasharray:none;stroke-opacity:1"
           d="m 53.485896,74.681399 c 0.367116,2.513007 0.734231,5.026012 1.610814,7.449398 0.876584,2.423386 2.262579,4.757059 3.533084,6.617197 1.270505,1.860137 2.425446,3.246636 3.580409,4.633163"
           id="path16-3-6"
           transform="matrix(1.3017772,0,0,1.3017772,353.98221,-70.628048)" />
        <path
           style="fill:none;fill-opacity:1;stroke:#cee9ff;stroke-width:3.80547;stroke-linecap:round;stroke-linejoin:round;stroke-miterlimit:3.7;stroke-dasharray:none;stroke-opacity:1"
           d="m 54.722836,56.900262 c 1.458963,2.034302 2.917926,4.068603 4.376888,6.102903"
           id="path46-6-9"
           transform="matrix(1.3017772,0,0,1.3017772,353.98221,-70.628048)" />
        <path
           style="fill:none;fill-opacity:1;stroke:#cee9ff;stroke-width:3.80547;stroke-linecap:round;stroke-linejoin:round;stroke-miterlimit:3.7;stroke-dasharray:none;stroke-opacity:1"
           d="m 60.819513,49.711842 c 1.947991,2.857501 3.895982,5.715 5.843974,8.572503"
           id="path47-1-3"
           transform="matrix(1.3017772,0,0,1.3017772,353.98221,-70.628048)" />
        <path
           style="fill:none;fill-opacity:1;stroke:#cee9ff;stroke-width:3.80547;stroke-linecap:round;stroke-linejoin:round;stroke-miterlimit:3.7;stroke-dasharray:none;stroke-opacity:1"
           d="m 68.383276,44.472484 c 2.038748,2.757799 4.077494,5.515596 6.116241,8.273393"
           id="path48-2-7"
           transform="matrix(1.3017772,0,0,1.3017772,353.98221,-70.628048)" />
        <path
           style="fill:#f49314;fill-opacity:1;stroke:#000000;stroke-width:4.95436;stroke-linecap:round;stroke-linejoin:round;stroke-miterlimit:3.7;stroke-dasharray:none;stroke-opacity:1"
           d="m 100.16204,105.12348 c 0,18.24123 0,36.48246 0,54.7237"
           id="path60"
           transform="translate(356.1825,-6.8096872)" />
      </g>
    </g>
  </g>
</svg>
