<?xml version="1.0" encoding="UTF-8" standalone="no"?>
<!-- Created with Inkscape (http://www.inkscape.org/) -->

<svg
   width="210mm"
   height="297mm"
   viewBox="0 0 210 297"
   version="1.1"
   id="svg1"
   xmlns="http://www.w3.org/2000/svg"
   xmlns:svg="http://www.w3.org/2000/svg">
  <defs
     id="defs1" />
  <g
     id="layer1">
    <g
       id="g2">
      <g
         id="g62"
         transform="matrix(0.90391362,0,0,0.90378682,-181.52178,14.287655)"
         style="stroke-width:1.10638">
        <g
           id="g3"
           transform="matrix(0.54248032,0,0,0.54248032,234.94377,170.92464)"
           style="stroke:#000000;stroke-width:9.13192;stroke-dasharray:none;stroke-opacity:1">
          <rect
             style="fill:#e8e1df;fill-opacity:1;stroke:#000000;stroke-width:9.13192;stroke-linecap:round;stroke-linejoin:round;stroke-miterlimit:3.7;stroke-dasharray:none;stroke-opacity:1"
             id="rect1"
             width="195.63066"
             height="153.0593"
             x="53.407455"
             y="41.94096" />
          <path
             style="fill:none;fill-opacity:1;stroke:#000000;stroke-width:9.13192;stroke-linecap:round;stroke-linejoin:round;stroke-miterlimit:3.7;stroke-dasharray:none;stroke-opacity:1"
             d="M 249.03811,41.940958 151.22278,118.47061 53.407455,41.94096"
             id="path2" />
        </g>
        <path
           id="path8"
           style="fill:#d8422f;fill-opacity:1;stroke:#000000;stroke-width:4.95388;stroke-linecap:round;stroke-linejoin:round;stroke-miterlimit:3.7;stroke-dasharray:none;stroke-opacity:1"
           d="m 270.77027,65.885183 a 46.208891,45.593622 0 0 1 46.2089,-45.593622 46.208891,45.593622 0 0 1 46.20888,45.593622 m 0,0 v 0 c -0.72814,36.789737 -46.94134,58.144917 -46.94134,58.144917 0,0 -45.37446,-22.74556 -45.47642,-58.144917" />
        <path
           style="fill:none;fill-opacity:1;stroke:#000000;stroke-width:3.80547;stroke-linecap:round;stroke-linejoin:round;stroke-miterlimit:3.7;stroke-dasharray:none;stroke-opacity:1"
           d="m 77.945511,130.81361 c 0.229056,13.40097 0.458112,26.80194 0.687168,40.20291"
           id="path11"
           transform="matrix(1.3017772,0,0,1.3017772,215.0642,-28.948622)" />
        <path
           style="fill:#da422f;fill-opacity:1;stroke:#000000;stroke-width:4.95388;stroke-linecap:round;stroke-linejoin:round;stroke-miterlimit:3.7;stroke-dasharray:none;stroke-opacity:1"
           d="m 305.67979,139.99321 11.29947,-15.96311 11.29948,15.96311 h -22.59895"
           id="path12" />
        <path
           style="fill:#da422f;fill-opacity:1;stroke:#000000;stroke-width:3.80547;stroke-linecap:round;stroke-linejoin:round;stroke-miterlimit:3.7;stroke-dasharray:none;stroke-opacity:1"
           d="m 89.032428,46.192275 c 3.957578,3.046121 7.915153,6.09224 10.57643,9.780922 2.661272,3.688681 4.026192,8.019749 4.515162,11.406407 0.48896,3.386658 0.10195,5.82872 -0.28506,8.270829"
           id="path13"
           transform="matrix(1.3017772,0,0,1.3017772,214.61693,-28.948622)" />
        <path
           style="fill:#da422f;fill-opacity:1;stroke:#000000;stroke-width:3.80547;stroke-linecap:round;stroke-linejoin:round;stroke-miterlimit:3.7;stroke-dasharray:none;stroke-opacity:1"
           d="m 101.26913,85.227408 c -1.00851,1.544746 -2.017006,3.089486 -3.025508,4.634227"
           id="path14"
           transform="matrix(1.3017772,0,0,1.3017772,214.61693,-28.948622)" />
        <path
           style="fill:#da422f;fill-opacity:1;stroke:#000000;stroke-width:3.80547;stroke-linecap:round;stroke-linejoin:round;stroke-miterlimit:3.7;stroke-dasharray:none;stroke-opacity:1"
           d="m 53.485896,74.681399 c 0.367116,2.513007 0.734231,5.026012 1.610814,7.449398 0.876584,2.423386 2.262579,4.757059 3.533084,6.617197 1.270505,1.860137 2.425446,3.246636 3.580409,4.633163"
           id="path16"
           transform="matrix(1.3017772,0,0,1.3017772,214.61693,-28.948622)" />
        <path
           style="fill:none;fill-opacity:1;stroke:#cee9ff;stroke-width:3.80547;stroke-linecap:round;stroke-linejoin:round;stroke-miterlimit:3.7;stroke-dasharray:none;stroke-opacity:1"
           d="m 54.722836,56.900262 c 1.458963,2.034302 2.917926,4.068603 4.376888,6.102903"
           id="path46"
           transform="matrix(1.3017772,0,0,1.3017772,214.61693,-28.948622)" />
        <path
           style="fill:none;fill-opacity:1;stroke:#cee9ff;stroke-width:3.80547;stroke-linecap:round;stroke-linejoin:round;stroke-miterlimit:3.7;stroke-dasharray:none;stroke-opacity:1"
           d="m 60.819513,49.711842 c 1.947991,2.857501 3.895982,5.715 5.843974,8.572503"
           id="path47"
           transform="matrix(1.3017772,0,0,1.3017772,214.61693,-28.948622)" />
        <path
           style="fill:none;fill-opacity:1;stroke:#cee9ff;stroke-width:3.80547;stroke-linecap:round;stroke-linejoin:round;stroke-miterlimit:3.7;stroke-dasharray:none;stroke-opacity:1"
           d="m 68.383276,44.472484 c 2.038748,2.757799 4.077494,5.515596 6.116241,8.273393"
           id="path48"
           transform="matrix(1.3017772,0,0,1.3017772,214.61693,-28.948622)" />
      </g>
    </g>
  </g>
</svg>
